<mxfile host="app.diagrams.net" agent="Mozilla/5.0 (X11; Linux x86_64) AppleWebKit/537.36 (KHTML, like Gecko) Chrome/126.0.0.0 YaBrowser/24.7.0.0 Safari/537.36" version="24.7.17">
  <diagram name="Страница — 1" id="Gn9hMWyZ4QU320hATol0">
    <mxGraphModel dx="958" dy="545" grid="0" gridSize="10" guides="0" tooltips="1" connect="0" arrows="0" fold="1" page="1" pageScale="1" pageWidth="1169" pageHeight="827" background="#000033" math="0" shadow="0">
      <root>
        <mxCell id="0" />
        <mxCell id="1" parent="0" />
        <mxCell id="ajD33pw20Ez8cnhlCxwo-1" value="" style="image;aspect=fixed;html=1;points=[];align=center;fontSize=12;image=img/lib/azure2/databases/Azure_Database_PostgreSQL_Server.svg;" vertex="1" parent="1">
          <mxGeometry x="800" y="249" width="48" height="64" as="geometry" />
        </mxCell>
        <mxCell id="ajD33pw20Ez8cnhlCxwo-2" value="" style="image;aspect=fixed;html=1;points=[];align=center;fontSize=12;image=img/lib/azure2/databases/Azure_Database_PostgreSQL_Server.svg;" vertex="1" parent="1">
          <mxGeometry x="800" y="393" width="48" height="64" as="geometry" />
        </mxCell>
        <mxCell id="ajD33pw20Ez8cnhlCxwo-5" value="" style="image;aspect=fixed;perimeter=ellipsePerimeter;html=1;align=center;shadow=0;dashed=0;spacingTop=3;image=img/lib/active_directory/web_server.svg;" vertex="1" parent="1">
          <mxGeometry x="576" y="248" width="51.2" height="64" as="geometry" />
        </mxCell>
        <mxCell id="ajD33pw20Ez8cnhlCxwo-6" value="" style="image;aspect=fixed;perimeter=ellipsePerimeter;html=1;align=center;shadow=0;dashed=0;spacingTop=3;image=img/lib/active_directory/web_server.svg;" vertex="1" parent="1">
          <mxGeometry x="576" y="392" width="51.2" height="64" as="geometry" />
        </mxCell>
        <mxCell id="ajD33pw20Ez8cnhlCxwo-10" value="" style="fillColor=#28A8E0;verticalLabelPosition=bottom;sketch=0;html=1;strokeColor=#ffffff;verticalAlign=top;align=center;points=[[0.145,0.145,0],[0.5,0,0],[0.855,0.145,0],[1,0.5,0],[0.855,0.855,0],[0.5,1,0],[0.145,0.855,0],[0,0.5,0]];pointerEvents=1;shape=mxgraph.cisco_safe.compositeIcon;bgIcon=ellipse;resIcon=mxgraph.cisco_safe.capability.load_balancer;direction=east;" vertex="1" parent="1">
          <mxGeometry x="447" y="330" width="43" height="43" as="geometry" />
        </mxCell>
        <mxCell id="ajD33pw20Ez8cnhlCxwo-11" value="" style="fillColor=#28A8E0;verticalLabelPosition=bottom;sketch=0;html=1;strokeColor=#ffffff;verticalAlign=top;align=center;points=[[0.145,0.145,0],[0.5,0,0],[0.855,0.145,0],[1,0.5,0],[0.855,0.855,0],[0.5,1,0],[0.145,0.855,0],[0,0.5,0]];pointerEvents=1;shape=mxgraph.cisco_safe.compositeIcon;bgIcon=ellipse;resIcon=mxgraph.cisco_safe.capability.load_balancer;direction=east;" vertex="1" parent="1">
          <mxGeometry x="684" y="330" width="43" height="43" as="geometry" />
        </mxCell>
        <mxCell id="ajD33pw20Ez8cnhlCxwo-12" value="" style="image;aspect=fixed;perimeter=ellipsePerimeter;html=1;align=center;shadow=0;dashed=0;spacingTop=3;image=img/lib/active_directory/laptop_client.svg;" vertex="1" parent="1">
          <mxGeometry x="326" y="232" width="57.6" height="64" as="geometry" />
        </mxCell>
        <mxCell id="ajD33pw20Ez8cnhlCxwo-13" value="" style="image;aspect=fixed;perimeter=ellipsePerimeter;html=1;align=center;shadow=0;dashed=0;spacingTop=3;image=img/lib/active_directory/mac_client.svg;" vertex="1" parent="1">
          <mxGeometry x="326" y="312" width="60.16" height="64" as="geometry" />
        </mxCell>
        <mxCell id="ajD33pw20Ez8cnhlCxwo-14" value="" style="image;aspect=fixed;perimeter=ellipsePerimeter;html=1;align=center;shadow=0;dashed=0;spacingTop=3;image=img/lib/active_directory/vista_client.svg;" vertex="1" parent="1">
          <mxGeometry x="326" y="392" width="48.64" height="64" as="geometry" />
        </mxCell>
        <mxCell id="ajD33pw20Ez8cnhlCxwo-15" value="Клиенты" style="text;strokeColor=none;fillColor=none;html=1;fontSize=24;fontStyle=1;verticalAlign=middle;align=center;fontColor=#FFFFFF;" vertex="1" parent="1">
          <mxGeometry x="302" y="472" width="100" height="40" as="geometry" />
        </mxCell>
        <mxCell id="ajD33pw20Ez8cnhlCxwo-16" value="Балансировщик&lt;div style=&quot;font-size: 14px;&quot;&gt;нагрузки&lt;/div&gt;" style="text;strokeColor=none;fillColor=none;html=1;fontSize=14;fontStyle=1;verticalAlign=middle;align=center;fontColor=#FFFFFF;" vertex="1" parent="1">
          <mxGeometry x="421" y="393" width="100" height="40" as="geometry" />
        </mxCell>
        <mxCell id="ajD33pw20Ez8cnhlCxwo-18" value="Кластер&lt;div&gt;веб-серверов&lt;/div&gt;" style="text;strokeColor=none;fillColor=none;html=1;fontSize=14;fontStyle=1;verticalAlign=middle;align=center;fontColor=#FFFFFF;" vertex="1" parent="1">
          <mxGeometry x="546" y="472" width="100" height="40" as="geometry" />
        </mxCell>
        <mxCell id="ajD33pw20Ez8cnhlCxwo-19" value="Виртуальный&lt;div&gt;ip адрес&lt;/div&gt;" style="text;strokeColor=none;fillColor=none;html=1;fontSize=14;fontStyle=1;verticalAlign=middle;align=center;fontColor=#FFFFFF;" vertex="1" parent="1">
          <mxGeometry x="655.5" y="393" width="100" height="40" as="geometry" />
        </mxCell>
        <mxCell id="ajD33pw20Ez8cnhlCxwo-20" value="Кластер&lt;div&gt;баз данных&lt;/div&gt;" style="text;strokeColor=none;fillColor=none;html=1;fontSize=14;fontStyle=1;verticalAlign=middle;align=center;fontColor=#FFFFFF;" vertex="1" parent="1">
          <mxGeometry x="774" y="473" width="100" height="40" as="geometry" />
        </mxCell>
        <mxCell id="ajD33pw20Ez8cnhlCxwo-21" value="" style="rounded=1;whiteSpace=wrap;html=1;direction=south;fillColor=none;strokeColor=#FFFFFF;" vertex="1" parent="1">
          <mxGeometry x="311" y="217" width="88" height="253" as="geometry" />
        </mxCell>
        <mxCell id="ajD33pw20Ez8cnhlCxwo-22" value="" style="rounded=1;whiteSpace=wrap;html=1;direction=south;fillColor=none;strokeColor=#FFFFFF;" vertex="1" parent="1">
          <mxGeometry x="553" y="219" width="88" height="253" as="geometry" />
        </mxCell>
        <mxCell id="ajD33pw20Ez8cnhlCxwo-23" value="" style="rounded=1;whiteSpace=wrap;html=1;direction=south;fillColor=none;strokeColor=#FFFFFF;" vertex="1" parent="1">
          <mxGeometry x="780" y="219" width="88" height="253" as="geometry" />
        </mxCell>
      </root>
    </mxGraphModel>
  </diagram>
</mxfile>
